SolveFromPy_states
version=1
nRows=4
nColumns=195
inDegrees=yes

# SIMM Motion File Header:
name SolveFromPy_states
datacolumns 195
datarows 4
otherdata 1
range 0.34298900 0.34323398
endheader
time	/jointset/ground_platform/platform_rx/value	/jointset/ground_platform/platform_rx/speed	/jointset/ground_platform/platform_ry/value	/jointset/ground_platform/platform_ry/speed	/jointset/ground_platform/platform_rz/value	/jointset/ground_platform/platform_rz/speed	/jointset/ground_platform/platform_ty/value	/jointset/ground_platform/platform_ty/speed	/jointset/ground_pelvis/pelvis_tilt/value	/jointset/ground_pelvis/pelvis_tilt/speed	/jointset/ground_pelvis/pelvis_list/value	/jointset/ground_pelvis/pelvis_list/speed	/jointset/ground_pelvis/pelvis_rotation/value	/jointset/ground_pelvis/pelvis_rotation/speed	/jointset/ground_pelvis/pelvis_tx/value	/jointset/ground_pelvis/pelvis_tx/speed	/jointset/ground_pelvis/pelvis_ty/value	/jointset/ground_pelvis/pelvis_ty/speed	/jointset/ground_pelvis/pelvis_tz/value	/jointset/ground_pelvis/pelvis_tz/speed	/jointset/hip_r/hip_flexion_r/value	/jointset/hip_r/hip_flexion_r/speed	/jointset/hip_r/hip_adduction_r/value	/jointset/hip_r/hip_adduction_r/speed	/jointset/hip_r/hip_rotation_r/value	/jointset/hip_r/hip_rotation_r/speed	/jointset/knee_r/knee_angle_r/value	/jointset/knee_r/knee_angle_r/speed	/jointset/ankle_r/ankle_angle_r/value	/jointset/ankle_r/ankle_angle_r/speed	/jointset/subtalar_r/subtalar_angle_r/value	/jointset/subtalar_r/subtalar_angle_r/speed	/jointset/mtp_r/mtp_angle_r/value	/jointset/mtp_r/mtp_angle_r/speed	/jointset/hip_l/hip_flexion_l/value	/jointset/hip_l/hip_flexion_l/speed	/jointset/hip_l/hip_adduction_l/value	/jointset/hip_l/hip_adduction_l/speed	/jointset/hip_l/hip_rotation_l/value	/jointset/hip_l/hip_rotation_l/speed	/jointset/knee_l/knee_angle_l/value	/jointset/knee_l/knee_angle_l/speed	/jointset/ankle_l/ankle_angle_l/value	/jointset/ankle_l/ankle_angle_l/speed	/jointset/subtalar_l/subtalar_angle_l/value	/jointset/subtalar_l/subtalar_angle_l/speed	/jointset/mtp_l/mtp_angle_l/value	/jointset/mtp_l/mtp_angle_l/speed	/jointset/back/lumbar_extension/value	/jointset/back/lumbar_extension/speed	/jointset/back/lumbar_bending/value	/jointset/back/lumbar_bending/speed	/jointset/back/lumbar_rotation/value	/jointset/back/lumbar_rotation/speed	/forceset/glut_med1_r/activation	/forceset/glut_med1_r/fiber_length	/forceset/glut_med2_r/activation	/forceset/glut_med2_r/fiber_length	/forceset/glut_med3_r/activation	/forceset/glut_med3_r/fiber_length	/forceset/bifemlh_r/activation	/forceset/bifemlh_r/fiber_length	/forceset/bifemsh_r/activation	/forceset/bifemsh_r/fiber_length	/forceset/sar_r/activation	/forceset/sar_r/fiber_length	/forceset/add_mag2_r/activation	/forceset/add_mag2_r/fiber_length	/forceset/tfl_r/activation	/forceset/tfl_r/fiber_length	/forceset/pect_r/activation	/forceset/pect_r/fiber_length	/forceset/grac_r/activation	/forceset/grac_r/fiber_length	/forceset/glut_max1_r/activation	/forceset/glut_max1_r/fiber_length	/forceset/glut_max2_r/activation	/forceset/glut_max2_r/fiber_length	/forceset/glut_max3_r/activation	/forceset/glut_max3_r/fiber_length	/forceset/iliacus_r/activation	/forceset/iliacus_r/fiber_length	/forceset/psoas_r/activation	/forceset/psoas_r/fiber_length	/forceset/quad_fem_r/activation	/forceset/quad_fem_r/fiber_length	/forceset/gem_r/activation	/forceset/gem_r/fiber_length	/forceset/peri_r/activation	/forceset/peri_r/fiber_length	/forceset/rect_fem_r/activation	/forceset/rect_fem_r/fiber_length	/forceset/vas_int_r/activation	/forceset/vas_int_r/fiber_length	/forceset/med_gas_r/activation	/forceset/med_gas_r/fiber_length	/forceset/lat_gas_r/activation	/forceset/lat_gas_r/fiber_length	/forceset/soleus_r/activation	/forceset/soleus_r/fiber_length	/forceset/tib_post_r/activation	/forceset/tib_post_r/fiber_length	/forceset/flex_dig_r/activation	/forceset/flex_dig_r/fiber_length	/forceset/flex_hal_r/activation	/forceset/flex_hal_r/fiber_length	/forceset/tib_ant_r/activation	/forceset/tib_ant_r/fiber_length	/forceset/per_brev_r/activation	/forceset/per_brev_r/fiber_length	/forceset/per_long_r/activation	/forceset/per_long_r/fiber_length	/forceset/per_tert_r/activation	/forceset/per_tert_r/fiber_length	/forceset/ext_dig_r/activation	/forceset/ext_dig_r/fiber_length	/forceset/ext_hal_r/activation	/forceset/ext_hal_r/fiber_length	/forceset/glut_med1_l/activation	/forceset/glut_med1_l/fiber_length	/forceset/glut_med2_l/activation	/forceset/glut_med2_l/fiber_length	/forceset/glut_med3_l/activation	/forceset/glut_med3_l/fiber_length	/forceset/bifemlh_l/activation	/forceset/bifemlh_l/fiber_length	/forceset/bifemsh_l/activation	/forceset/bifemsh_l/fiber_length	/forceset/sar_l/activation	/forceset/sar_l/fiber_length	/forceset/add_mag2_l/activation	/forceset/add_mag2_l/fiber_length	/forceset/tfl_l/activation	/forceset/tfl_l/fiber_length	/forceset/pect_l/activation	/forceset/pect_l/fiber_length	/forceset/grac_l/activation	/forceset/grac_l/fiber_length	/forceset/glut_max1_l/activation	/forceset/glut_max1_l/fiber_length	/forceset/glut_max2_l/activation	/forceset/glut_max2_l/fiber_length	/forceset/glut_max3_l/activation	/forceset/glut_max3_l/fiber_length	/forceset/iliacus_l/activation	/forceset/iliacus_l/fiber_length	/forceset/psoas_l/activation	/forceset/psoas_l/fiber_length	/forceset/quad_fem_l/activation	/forceset/quad_fem_l/fiber_length	/forceset/gem_l/activation	/forceset/gem_l/fiber_length	/forceset/peri_l/activation	/forceset/peri_l/fiber_length	/forceset/rect_fem_l/activation	/forceset/rect_fem_l/fiber_length	/forceset/vas_int_l/activation	/forceset/vas_int_l/fiber_length	/forceset/med_gas_l/activation	/forceset/med_gas_l/fiber_length	/forceset/lat_gas_l/activation	/forceset/lat_gas_l/fiber_length	/forceset/soleus_l/activation	/forceset/soleus_l/fiber_length	/forceset/tib_post_l/activation	/forceset/tib_post_l/fiber_length	/forceset/flex_dig_l/activation	/forceset/flex_dig_l/fiber_length	/forceset/flex_hal_l/activation	/forceset/flex_hal_l/fiber_length	/forceset/tib_ant_l/activation	/forceset/tib_ant_l/fiber_length	/forceset/per_brev_l/activation	/forceset/per_brev_l/fiber_length	/forceset/per_long_l/activation	/forceset/per_long_l/fiber_length	/forceset/per_tert_l/activation	/forceset/per_tert_l/fiber_length	/forceset/ext_dig_l/activation	/forceset/ext_dig_l/fiber_length	/forceset/ext_hal_l/activation	/forceset/ext_hal_l/fiber_length	/forceset/ercspn_r/activation	/forceset/ercspn_r/fiber_length	/forceset/ercspn_l/activation	/forceset/ercspn_l/fiber_length	/forceset/intobl_r/activation	/forceset/intobl_r/fiber_length	/forceset/intobl_l/activation	/forceset/intobl_l/fiber_length	/forceset/extobl_r/activation	/forceset/extobl_r/fiber_length	/forceset/extobl_l/activation	/forceset/extobl_l/fiber_length
      0.34298900	     20.00000000	      0.00000000	     -0.00000000	     -0.00000000	     -0.00000000	     -0.00000000	      0.25000000	      0.00000000	     -6.94737391	     34.99181895	     -0.20028777	   -130.32697786	      0.25617648	   -147.12826306	      0.05051138	     -0.30891914	      1.10207481	     -2.99803613	      0.00148578	      0.20085817	     19.43599263	    697.11980547	     -0.19260303	    168.50953731	      5.49802134	    107.86382920	    -28.95612226	  -1429.49448225	    222.74199310	     31.67779246	     12.96666688	    476.45525078	     -0.00000000	     -0.00000000	    -19.99999998	     -0.00000000	     10.00000028	      0.00000000	      4.99999985	     -0.00000000	   -119.99999986	      0.00000000	     11.49999977	      0.00000000	     -0.03000064	      0.00000000	      0.00000000	     -0.00000000	     -6.03520515	    -83.51209384	     -0.24886839	    144.73724430	      1.61126323	    170.93626270	     -0.01871779	      0.04413943	     -0.01871779	      0.08423768	     -0.01871779	      0.06906771	     -0.01871779	      0.09907764	     -0.01871779	      0.16009015	     -0.01871779	      0.44903140	     -0.01871779	      0.08069722	     -0.01871779	      0.09975440	     -0.01871779	      0.06349453	     -0.01871779	      0.30516448	     -0.01871779	      0.09082163	     -0.01871779	      0.10142594	     -0.01871779	      0.11700505	     -0.01871779	      0.09511592	     -0.01871779	      0.08955988	     -0.01871779	      0.05130392	     -0.01871779	      0.02832122	     -0.01871779	      0.02629253	     -0.01871779	      0.10854918	     -0.01871779	      0.08872540	     -0.01871779	      0.08992783	     -0.01871779	      0.06404724	     -0.01871779	      0.07966970	     -0.01871779	      0.03122585	     -0.01871779	      0.03317008	     -0.01871779	      0.04270344	     -0.01871779	      0.11673729	     -0.01871779	      0.04822328	     -0.01871779	      0.04892888	     -0.01871779	      0.11163848	     -0.01871779	      0.14145596	     -0.01871779	      0.14915424	     -0.01871779	      0.04646954	     -0.01871779	      0.07924345	     -0.01871779	      0.06066849	     -0.01871779	      0.02207317	     -0.01871779	      0.12238178	     -0.01871779	      0.45556126	     -0.01871779	      0.05828642	     -0.01871779	      0.13391495	     -0.01871779	      0.07307389	     -0.01871779	      0.24301553	     -0.01871779	      0.06638073	     -0.01871779	      0.06554424	     -0.01871779	      0.05770037	     -0.01871779	      0.11895704	     -0.01871779	      0.11276383	     -0.01871779	      0.04385542	     -0.01871779	      0.02477863	     -0.01871779	      0.02332643	     -0.01871779	      0.18252185	     -0.01871779	      0.13945923	     -0.01871779	      0.06773758	     -0.01871779	      0.04190360	     -0.01871779	      0.08593352	     -0.01871779	      0.03561975	     -0.01871779	      0.03422630	     -0.01871779	      0.04262173	     -0.01871779	      0.07211219	     -0.01871779	      0.05030461	     -0.01871779	      0.05155970	     -0.01871779	      0.07464108	     -0.01871779	      0.08888360	     -0.01871779	      0.09641128	     -0.01871779	      0.12386478	     -0.01871779	      0.12402472	     -0.01871779	      0.09497374	     -0.01871779	      0.09166283	     -0.01871779	      0.12614969	     -0.01871779	      0.12695663
      0.34302865	     20.00000000	      0.00000000	     -0.00000000	     -0.00000000	     -0.00000000	     -0.00000000	      0.25000000	      0.00000000	     -6.94598701	     34.97732949	     -0.20545333	   -130.27464278	      0.25034414	   -147.11271923	      0.05049913	     -0.30900232	      1.10195595	     -2.99847872	      0.00149375	      0.20092401	     19.46363828	    697.60056195	     -0.18592272	    168.51184296	      5.50229871	    107.92778523	    -29.01281011	  -1430.40683202	    222.74323752	     31.15756579	     12.98553893	    475.64571165	     -0.00000000	     -0.00000000	    -19.99999998	     -0.00000000	     10.00000028	      0.00000000	      4.99999985	     -0.00000000	   -119.99999986	      0.00000000	     11.49999977	      0.00000000	     -0.03000064	      0.00000000	      0.00000000	     -0.00000000	     -6.03851627	    -83.53341201	     -0.24313234	    144.64550782	      1.61803924	    170.91253986	     -0.01872289	      0.04414424	     -0.01872289	      0.08424960	     -0.01872289	      0.06908223	     -0.01872289	      0.09907153	     -0.01872289	      0.16007249	     -0.01872289	      0.44899677	     -0.01872289	      0.08070656	     -0.01872289	      0.09974746	     -0.01872289	      0.06348432	     -0.01872289	      0.30513594	     -0.01872289	      0.09084385	     -0.01872289	      0.10145220	     -0.01872289	      0.11703658	     -0.01872289	      0.09510571	     -0.01872289	      0.08954967	     -0.01872289	      0.05130706	     -0.01872289	      0.02832428	     -0.01872289	      0.02629984	     -0.01872289	      0.10857565	     -0.01872289	      0.08876956	     -0.01872289	      0.08991864	     -0.01872289	      0.06404046	     -0.01872289	      0.07966154	     -0.01872289	      0.03122143	     -0.01872289	      0.03316661	     -0.01872289	      0.04269905	     -0.01872289	      0.11673374	     -0.01872289	      0.04821818	     -0.01872289	      0.04892387	     -0.01872289	      0.11173553	     -0.01872289	      0.14145614	     -0.01872289	      0.14915065	     -0.01872289	      0.04646954	     -0.01872289	      0.07924345	     -0.01872289	      0.06066849	     -0.01872289	      0.02207317	     -0.01872289	      0.12238178	     -0.01872289	      0.45556126	     -0.01872289	      0.05828642	     -0.01872289	      0.13391495	     -0.01872289	      0.07307389	     -0.01872289	      0.24301553	     -0.01872289	      0.06638073	     -0.01872289	      0.06554424	     -0.01872289	      0.05770037	     -0.01872289	      0.11895704	     -0.01872289	      0.11276383	     -0.01872289	      0.04385542	     -0.01872289	      0.02477863	     -0.01872289	      0.02332643	     -0.01872289	      0.18252185	     -0.01872289	      0.13945923	     -0.01872289	      0.06773758	     -0.01872289	      0.04190360	     -0.01872289	      0.08593352	     -0.01872289	      0.03561975	     -0.01872289	      0.03422631	     -0.01872289	      0.04262174	     -0.01872289	      0.07211219	     -0.01872289	      0.05030461	     -0.01872289	      0.05155970	     -0.01872289	      0.07464108	     -0.01872289	      0.08888360	     -0.01872289	      0.09641128	     -0.01872289	      0.12386219	     -0.01872289	      0.12403339	     -0.01872289	      0.09496584	     -0.01872289	      0.09166449	     -0.01872289	      0.12613659	     -0.01872289	      0.12696268
      0.34307812	     20.00000000	      0.00000000	     -0.00000000	     -0.00000000	     -0.00000000	     -0.00000000	      0.25000000	      0.00000000	     -6.94425710	     34.95840386	     -0.21189646	   -130.20476895	      0.24306686	   -147.08944982	      0.05048384	     -0.30909760	      1.10180760	     -2.99904525	      0.00150369	      0.20100695	     19.49816404	    698.19212459	     -0.17758616	    168.51539311	      5.50763977	    107.99577748	    -29.08360243	  -1431.56058067	    222.74477186	     30.94899253	     13.00904583	    474.68998016	     -0.00000000	     -0.00000000	    -19.99999998	     -0.00000000	     10.00000028	      0.00000000	      4.99999985	     -0.00000000	   -119.99999986	      0.00000000	     11.49999977	      0.00000000	     -0.03000064	      0.00000000	      0.00000000	     -0.00000000	     -6.04264937	    -83.55771501	     -0.23597951	    144.52514488	      1.62649365	    170.87825481	     -0.01872926	      0.04415023	     -0.01872926	      0.08426446	     -0.01872926	      0.06910034	     -0.01872926	      0.09906394	     -0.01872926	      0.16005045	     -0.01872926	      0.44895350	     -0.01872926	      0.08071825	     -0.01872926	      0.09973872	     -0.01872926	      0.06347158	     -0.01872926	      0.30510030	     -0.01872926	      0.09087160	     -0.01872926	      0.10148499	     -0.01872926	      0.11707595	     -0.01872926	      0.09509297	     -0.01872926	      0.08953693	     -0.01872926	      0.05131314	     -0.01872926	      0.02832811	     -0.01872926	      0.02630897	     -0.01872926	      0.10860868	     -0.01872926	      0.08882470	     -0.01872926	      0.08990717	     -0.01872926	      0.06403206	     -0.01872926	      0.07965134	     -0.01872926	      0.03121594	     -0.01872926	      0.03316228	     -0.01872926	      0.04269358	     -0.01872926	      0.11672900	     -0.01872926	      0.04821181	     -0.01872926	      0.04891763	     -0.01872926	      0.11172809	     -0.01872926	      0.14145635	     -0.01872926	      0.14914616	     -0.01872926	      0.04646954	     -0.01872926	      0.07924345	     -0.01872926	      0.06066849	     -0.01872926	      0.02207317	     -0.01872926	      0.12238178	     -0.01872926	      0.45556126	     -0.01872926	      0.05828642	     -0.01872926	      0.13391495	     -0.01872926	      0.07307389	     -0.01872926	      0.24301553	     -0.01872926	      0.06638073	     -0.01872926	      0.06554424	     -0.01872926	      0.05770037	     -0.01872926	      0.11895704	     -0.01872926	      0.11276383	     -0.01872926	      0.04385542	     -0.01872926	      0.02477863	     -0.01872926	      0.02332643	     -0.01872926	      0.18252185	     -0.01872926	      0.13945923	     -0.01872926	      0.06773758	     -0.01872926	      0.04190360	     -0.01872926	      0.08593352	     -0.01872926	      0.03561975	     -0.01872926	      0.03422631	     -0.01872926	      0.04262174	     -0.01872926	      0.07211219	     -0.01872926	      0.05030461	     -0.01872926	      0.05155970	     -0.01872926	      0.07464108	     -0.01872926	      0.08888360	     -0.01872926	      0.09641128	     -0.01872926	      0.12385895	     -0.01872926	      0.12404268	     -0.01872926	      0.09495596	     -0.01872926	      0.09166660	     -0.01872926	      0.12612024	     -0.01872926	      0.12697023
      0.34323398	     20.00000000	      0.00000000	     -0.00000000	     -0.00000000	     -0.00000000	     -0.00000000	      0.25000000	      0.00000000	     -6.93881338	     34.89345494	     -0.23217155	   -129.95588646	      0.22014840	   -146.99162790	      0.05043564	     -0.30934403	      1.10134002	     -3.00091848	      0.00153504	      0.20127157	     19.60712765	    700.00309644	     -0.15132009	    168.52749607	      5.52448335	    108.11633773	    -29.30701662	  -1435.28219362	    222.74970367	     32.94948561	     13.08281352	    471.94983059	     -0.00000000	     -0.00000000	    -19.99999998	     -0.00000000	     10.00000028	      0.00000000	      4.99999985	     -0.00000000	   -119.99999986	      0.00000000	     11.49999977	      0.00000000	     -0.03000064	      0.00000000	      0.00000000	     -0.00000000	     -6.05567793	    -83.61966186	     -0.21348530	    144.10904927	      1.65311686	    170.74054351	     -0.01874933	      0.04416901	     -0.01874933	      0.08431126	     -0.01874933	      0.06915738	     -0.01874933	      0.09904030	     -0.01874933	      0.15998102	     -0.01874933	      0.44881666	     -0.01874933	      0.08075530	     -0.01874933	      0.09971069	     -0.01874933	      0.06343145	     -0.01874933	      0.30498778	     -0.01874933	      0.09095911	     -0.01874933	      0.10158843	     -0.01874933	      0.11720025	     -0.01874933	      0.09505284	     -0.01874933	      0.08949680	     -0.01874933	      0.05133461	     -0.01874933	      0.02834023	     -0.01874933	      0.02633777	     -0.01874933	      0.10871270	     -0.01874933	      0.08899861	     -0.01874933	      0.08987105	     -0.01874933	      0.06400596	     -0.01874933	      0.07961924	     -0.01874933	      0.03119891	     -0.01874933	      0.03314863	     -0.01874933	      0.04267632	     -0.01874933	      0.11671179	     -0.01874933	      0.04819174	     -0.01874933	      0.04889797	     -0.01874933	      0.11172681	     -0.01874933	      0.14145687	     -0.01874933	      0.14913197	     -0.01874933	      0.04646954	     -0.01874933	      0.07924345	     -0.01874933	      0.06066849	     -0.01874933	      0.02207317	     -0.01874933	      0.12238178	     -0.01874933	      0.45556126	     -0.01874933	      0.05828642	     -0.01874933	      0.13391495	     -0.01874933	      0.07307389	     -0.01874933	      0.24301553	     -0.01874933	      0.06638073	     -0.01874933	      0.06554424	     -0.01874933	      0.05770037	     -0.01874933	      0.11895704	     -0.01874933	      0.11276383	     -0.01874933	      0.04385542	     -0.01874933	      0.02477863	     -0.01874933	      0.02332643	     -0.01874933	      0.18252185	     -0.01874933	      0.13945923	     -0.01874933	      0.06773758	     -0.01874933	      0.04190360	     -0.01874933	      0.08593352	     -0.01874933	      0.03561975	     -0.01874933	      0.03422633	     -0.01874933	      0.04262176	     -0.01874933	      0.07211219	     -0.01874933	      0.05030461	     -0.01874933	      0.05155970	     -0.01874933	      0.07464108	     -0.01874933	      0.08888361	     -0.01874933	      0.09641128	     -0.01874933	      0.12384876	     -0.01874933	      0.12407218	     -0.01874933	      0.09492470	     -0.01874933	      0.09167352	     -0.01874933	      0.12606871	     -0.01874933	      0.12699397
